<svg width="6" height="14" viewBox="0 0 6 14" fill="none" xmlns="http://www.w3.org/2000/svg">
<path d="M5.25453 13.3595C4.82156 13.6918 4.15305 13.6668 3.7112 13.251C2.92471 12.5109 2.28377 11.6832 1.81117 10.7944C1.18768 9.62182 0.86939 8.36592 0.874467 7.09838C0.879545 5.83084 1.20789 4.57649 1.84076 3.40693C2.35187 2.4624 3.05352 1.58811 3.91788 0.816007C4.27922 0.49323 4.87431 0.523931 5.30461 0.858262C5.86665 1.29495 5.915 2.05654 5.47375 2.50627C4.97028 3.01942 4.55153 3.58073 4.22867 4.17738C3.72682 5.1048 3.46646 6.09945 3.46243 7.10456C3.4584 8.10967 3.7108 9.10555 4.2052 10.0353C4.47741 10.5473 4.82005 11.0336 5.2262 11.4864C5.75175 12.0723 5.82007 12.9255 5.25453 13.3595Z" fill="#25B43C"/>

<path d="M5.25453 13.3595C4.82156 13.6918 4.15305 13.6668 3.7112 13.251C2.92471 12.5109 2.28377 11.6832 1.81117 10.7944C1.18768 9.62182 0.86939 8.36592 0.874467 7.09838C0.879545 5.83084 1.20789 4.57649 1.84076 3.40693C2.35187 2.4624 3.05352 1.58811 3.91788 0.816007C4.27922 0.49323 4.87431 0.523931 5.30461 0.858262C5.86665 1.29495 5.915 2.05654 5.47375 2.50627C4.97028 3.01942 4.55153 3.58073 4.22867 4.17738C3.72682 5.1048 3.46646 6.09945 3.46243 7.10456C3.4584 8.10967 3.7108 9.10555 4.2052 10.0353C4.47741 10.5473 4.82005 11.0336 5.2262 11.4864C5.75175 12.0723 5.82007 12.9255 5.25453 13.3595Z" fill="#25B43C"/>
</svg>
