<svg width="100" height="31" viewBox="0 0 100 31" fill="none" xmlns="http://www.w3.org/2000/svg">
<path d="M24.6139 7.838C25.4539 7.838 26.1679 7.957 26.7559 8.195C27.3439 8.433 27.9179 8.769 28.4779 9.203C28.6319 9.329 28.7649 9.392 28.8769 9.392C29.1569 9.392 29.3389 8.972 29.4229 8.132H29.9059C29.8499 9.084 29.8219 10.778 29.8219 13.214H29.3389C29.2129 12.178 29.0449 11.387 28.8349 10.841C28.6249 10.295 28.2679 9.819 27.7639 9.413C27.4139 9.077 27.0079 8.825 26.5459 8.657C26.0839 8.475 25.6009 8.384 25.0969 8.384C23.6829 8.384 22.6329 9.077 21.9469 10.463C21.2609 11.835 20.9179 13.55 20.9179 15.608C20.9179 17.652 21.2749 19.36 21.9889 20.732C22.7029 22.104 23.7669 22.79 25.1809 22.79C25.6569 22.79 26.1259 22.706 26.5879 22.538C27.0639 22.356 27.4629 22.097 27.7849 21.761C28.3029 21.369 28.6599 20.879 28.8559 20.291C29.0659 19.703 29.2269 18.842 29.3389 17.708H29.8219C29.8219 20.242 29.8499 22.006 29.9059 23H29.4229C29.3809 22.552 29.3179 22.237 29.2339 22.055C29.1639 21.859 29.0589 21.761 28.9189 21.761C28.8069 21.761 28.6599 21.817 28.4779 21.929C27.8479 22.377 27.2459 22.72 26.6719 22.958C26.0979 23.182 25.4049 23.294 24.5929 23.294C23.1089 23.294 21.8069 22.993 20.6869 22.391C19.5809 21.789 18.7199 20.921 18.1039 19.787C17.4879 18.639 17.1799 17.274 17.1799 15.692C17.1799 14.152 17.4949 12.787 18.1249 11.597C18.7549 10.407 19.6299 9.483 20.7499 8.825C21.8839 8.167 23.1719 7.838 24.6139 7.838ZM38.4125 8.552C37.9085 8.58 37.5375 8.636 37.2995 8.72C37.0755 8.804 36.9215 8.965 36.8375 9.203C36.7535 9.441 36.7115 9.826 36.7115 10.358V21.026C36.7115 21.474 36.7465 21.803 36.8165 22.013C36.8865 22.209 37.0055 22.342 37.1735 22.412C37.3555 22.482 37.6425 22.517 38.0345 22.517H39.0635C40.0155 22.517 40.8345 22.09 41.5205 21.236C42.2205 20.382 42.6755 19.248 42.8855 17.834H43.3685C43.3265 18.31 43.3055 18.926 43.3055 19.682C43.3055 21.026 43.3545 22.132 43.4525 23C42.5005 22.958 40.8975 22.937 38.6435 22.937C35.5915 22.937 33.3095 22.958 31.7975 23V22.58C32.2595 22.552 32.5955 22.496 32.8055 22.412C33.0295 22.328 33.1765 22.167 33.2465 21.929C33.3305 21.691 33.3725 21.306 33.3725 20.774V10.358C33.3725 9.826 33.3305 9.441 33.2465 9.203C33.1765 8.965 33.0295 8.804 32.8055 8.72C32.5955 8.636 32.2595 8.58 31.7975 8.552V8.132C32.5115 8.174 33.6175 8.195 35.1155 8.195C36.5435 8.195 37.6425 8.174 38.4125 8.132V8.552ZM56.1434 19.808C56.1434 21.096 56.1924 22.16 56.2904 23C55.3384 22.958 53.7354 22.937 51.4814 22.937C48.4294 22.937 46.1474 22.958 44.6354 23V22.58C45.0974 22.552 45.4334 22.496 45.6434 22.412C45.8674 22.328 46.0144 22.167 46.0844 21.929C46.1684 21.691 46.2104 21.306 46.2104 20.774V10.358C46.2104 9.826 46.1684 9.441 46.0844 9.203C46.0144 8.965 45.8674 8.804 45.6434 8.72C45.4334 8.636 45.0974 8.58 44.6354 8.552V8.132C46.1474 8.174 48.4294 8.195 51.4814 8.195C53.5394 8.195 55.0024 8.174 55.8704 8.132C55.7724 9.294 55.7234 10.33 55.7234 11.24C55.7234 11.856 55.7444 12.332 55.7864 12.668H55.3034C55.0934 11.17 54.7154 10.12 54.1694 9.518C53.6234 8.916 52.8534 8.615 51.8594 8.615H50.9984C50.5644 8.615 50.2494 8.65 50.0534 8.72C49.8574 8.79 49.7244 8.93 49.6544 9.14C49.5844 9.336 49.5494 9.658 49.5494 10.106V15.314H50.2214C50.9634 15.314 51.5234 15.041 51.9014 14.495C52.2934 13.949 52.5664 13.298 52.7204 12.542H53.2034C53.1614 13.13 53.1404 13.788 53.1404 14.516V15.524C53.1404 16.238 53.1824 17.232 53.2664 18.506H52.7834C52.4894 16.658 51.6354 15.734 50.2214 15.734H49.5494V21.026C49.5494 21.474 49.5844 21.803 49.6544 22.013C49.7244 22.209 49.8574 22.342 50.0534 22.412C50.2494 22.482 50.5644 22.517 50.9984 22.517H52.0274C53.0214 22.517 53.8194 22.181 54.4214 21.509C55.0374 20.823 55.4714 19.668 55.7234 18.044H56.2064C56.1644 18.506 56.1434 19.094 56.1434 19.808ZM70.062 21.236C70.244 21.698 70.454 22.034 70.692 22.244C70.93 22.454 71.161 22.566 71.385 22.58V23C70.545 22.958 69.481 22.937 68.193 22.937C66.765 22.937 65.701 22.958 65.001 23V22.58C65.533 22.552 65.911 22.489 66.135 22.391C66.359 22.279 66.471 22.09 66.471 21.824C66.471 21.572 66.387 21.236 66.219 20.816L64.959 17.372H60.381L59.835 18.821C59.443 19.829 59.247 20.606 59.247 21.152C59.247 21.67 59.401 22.034 59.709 22.244C60.031 22.44 60.5 22.552 61.116 22.58V23C60.164 22.958 59.296 22.937 58.512 22.937C57.868 22.937 57.336 22.958 56.916 23V22.58C57.602 22.454 58.204 21.719 58.722 20.375L63.51 8.09C63.664 8.104 63.909 8.111 64.245 8.111C64.581 8.111 64.819 8.104 64.959 8.09L70.062 21.236ZM64.812 16.952L62.733 11.282L60.549 16.952H64.812ZM85.3806 8.552C84.9186 8.622 84.5756 8.741 84.3516 8.909C84.1416 9.077 83.9946 9.343 83.9106 9.707C83.8406 10.071 83.8056 10.61 83.8056 11.324V23.042L83.3016 23.021L82.7346 23.042L73.6206 11.492V19.556C73.6206 20.382 73.6626 20.991 73.7466 21.383C73.8306 21.761 74.0126 22.041 74.2926 22.223C74.5726 22.391 75.0276 22.51 75.6576 22.58V23C75.1116 22.958 74.3556 22.937 73.3896 22.937C72.6196 22.937 72.0106 22.958 71.5626 23V22.58C72.0246 22.51 72.3606 22.391 72.5706 22.223C72.7946 22.055 72.9416 21.789 73.0116 21.425C73.0956 21.061 73.1376 20.522 73.1376 19.808V10.358C73.1376 9.826 73.0956 9.441 73.0116 9.203C72.9416 8.965 72.7946 8.804 72.5706 8.72C72.3606 8.636 72.0246 8.58 71.5626 8.552V8.132C72.0106 8.174 72.6196 8.195 73.3896 8.195C74.0896 8.195 74.6916 8.174 75.1956 8.132L83.3226 18.149V11.576C83.3226 10.75 83.2806 10.148 83.1966 9.77C83.1126 9.378 82.9306 9.098 82.6506 8.93C82.3706 8.748 81.9156 8.622 81.2856 8.552V8.132C81.8316 8.174 82.5876 8.195 83.5536 8.195C84.3376 8.195 84.9466 8.174 85.3806 8.132V8.552ZM98.5473 21.236C98.7293 21.698 98.9393 22.034 99.1773 22.244C99.4153 22.454 99.6463 22.566 99.8703 22.58V23C99.0303 22.958 97.9663 22.937 96.6783 22.937C95.2503 22.937 94.1863 22.958 93.4863 23V22.58C94.0183 22.552 94.3963 22.489 94.6203 22.391C94.8443 22.279 94.9563 22.09 94.9563 21.824C94.9563 21.572 94.8723 21.236 94.7043 20.816L93.4443 17.372H88.8663L88.3203 18.821C87.9283 19.829 87.7323 20.606 87.7323 21.152C87.7323 21.67 87.8863 22.034 88.1943 22.244C88.5163 22.44 88.9853 22.552 89.6013 22.58V23C88.6493 22.958 87.7813 22.937 86.9973 22.937C86.3533 22.937 85.8213 22.958 85.4013 23V22.58C86.0873 22.454 86.6893 21.719 87.2073 20.375L91.9953 8.09C92.1493 8.104 92.3943 8.111 92.7303 8.111C93.0663 8.111 93.3043 8.104 93.4443 8.09L98.5473 21.236ZM93.2973 16.952L91.2183 11.282L89.0343 16.952H93.2973Z" fill="white"/>
<path d="M12.4261 7.47512C11.9192 6.97135 11.0939 6.97008 10.6452 7.52632C9.8888 8.46402 9.27048 9.50796 8.81117 10.6266C8.18768 12.1451 7.86939 13.7716 7.87447 15.4131C7.87954 17.0546 8.20789 18.679 8.84076 20.1937C9.30699 21.3094 9.93175 22.3495 10.6939 23.2825C11.1461 23.836 11.9713 23.8296 12.4751 23.3227C12.9789 22.8158 12.9685 22.001 12.5315 21.4355C12.0022 20.7507 11.5638 19.9979 11.2287 19.1959C10.7268 17.9949 10.4665 16.7067 10.4624 15.4051C10.4584 14.1034 10.7108 12.8137 11.2052 11.6096C11.5354 10.8055 11.9691 10.0501 12.4942 9.36194C12.9276 8.79378 12.933 7.97888 12.4261 7.47512Z" fill="white"/>
<path d="M7.42609 23.2737C6.91919 23.7775 6.09389 23.7788 5.6452 23.2225C4.8888 22.2848 4.27048 21.2409 3.81117 20.1222C3.18768 18.6037 2.86939 16.9773 2.87447 15.3358C2.87954 13.6942 3.20789 12.0698 3.84076 10.5552C4.30699 9.43939 4.93175 8.3993 5.69394 7.46629C6.14606 6.91284 6.97134 6.91921 7.47511 7.42611C7.97887 7.933 7.9685 8.74785 7.5315 9.31332C7.00223 9.99818 6.5638 10.7509 6.22867 11.553C5.72682 12.754 5.46646 14.0421 5.46243 15.3438C5.4584 16.6454 5.7108 17.9351 6.2052 19.1392C6.53536 19.9434 6.96913 20.6988 7.49415 21.3869C7.92765 21.9551 7.93298 22.77 7.42609 23.2737Z" fill="white"/>
</svg>
