<svg width="180" height="180" viewBox="0 0 180 180" fill="none" xmlns="http://www.w3.org/2000/svg">
<circle opacity="0.15" cx="90" cy="90" r="89" fill="#25B43C"/>
<circle cx="90" cy="90" r="89.5" stroke="#25B43C"/>
<g clip-path="url(#clip0)">
<path d="M125.398 115.941H118.322V105.748C118.322 104.669 117.447 103.795 116.369 103.795C115.29 103.795 114.415 104.669 114.415 105.748V117.894C114.415 118.973 115.29 119.848 116.369 119.848H125.398C126.477 119.848 127.351 118.973 127.351 117.894C127.351 116.816 126.477 115.941 125.398 115.941Z" fill="#25B43C"/>
<path d="M127.329 98.7098V55.0631C127.329 52.4018 125.162 50.2365 122.497 50.2365H116.706V45.9061C116.705 42.6494 114.054 40 110.794 40C107.537 40 104.888 42.6494 104.888 45.9061V50.2365H90.3368V45.9061C90.3368 42.6494 87.6872 40 84.4305 40C81.1709 40 78.519 42.6494 78.519 45.9061V50.2365H63.9731V45.9061C63.9733 42.6494 61.3215 40 58.062 40C54.8053 40 52.1559 42.6494 52.1559 45.9061V50.2365H46.3586C43.6973 50.2365 41.5321 52.4018 41.5321 55.0631V127.489C41.5321 130.15 43.6973 132.316 46.3586 132.316H99.635C103.691 137.017 109.687 140 116.369 140C128.555 140 138.468 130.084 138.468 117.895C138.468 109.695 133.979 102.524 127.329 98.7098ZM108.794 45.9061C108.794 44.8033 109.691 43.9062 110.794 43.9062C111.9 43.9062 112.799 44.8035 112.799 45.9061V54.8969C112.799 55.9809 111.881 56.8967 110.794 56.8967C109.691 56.8967 108.794 55.9994 108.794 54.8969V45.9061ZM82.4254 45.9061C82.4254 44.8033 83.3249 43.9062 84.4307 43.9062C85.5334 43.9062 86.4305 44.8035 86.4305 45.9061V54.8969C86.4305 55.9996 85.5332 56.8967 84.4307 56.8967C83.3438 56.8967 82.4254 55.9809 82.4254 54.8969V45.9061ZM56.0622 45.9061C56.0622 44.8035 56.9592 43.9062 58.062 43.9062C59.1676 43.9062 60.0672 44.8035 60.0672 45.9061V54.8969C60.0672 55.9809 59.1491 56.8967 58.062 56.8967C56.9592 56.8967 56.0623 55.9994 56.0623 54.8969V45.9061H56.0622ZM46.3586 128.409C45.8598 128.409 45.4383 127.988 45.4383 127.489V68.7754H75.6614C76.7399 68.7754 77.6145 67.9008 77.6145 66.8223C77.6145 65.7437 76.7399 64.8691 75.6614 64.8691H45.4383V55.0631C45.4383 54.5643 45.8598 54.1428 46.3586 54.1428H52.1561V54.8969C52.1561 58.1535 54.8053 60.8029 58.062 60.8029C61.3215 60.8029 63.9735 58.1535 63.9735 54.8969V54.1428H78.5194V54.8969C78.5194 58.1535 81.1711 60.8029 84.4309 60.8029C87.6875 60.8029 90.337 58.1535 90.337 54.8969V54.1428H104.888V54.8969C104.888 58.1535 107.538 60.8029 110.794 60.8029C114.054 60.8029 116.706 58.1535 116.706 54.8969V54.1428H122.498C122.999 54.1428 123.423 54.5643 123.423 55.0631V64.8691H93.2C92.1215 64.8691 91.2469 65.7437 91.2469 66.8223C91.2469 67.9008 92.1215 68.7754 93.2 68.7754H123.423V96.9494C121.207 96.201 118.834 95.7949 116.369 95.7949C113.688 95.7949 111.118 96.2748 108.739 97.1523V78.9578C108.739 76.3789 106.641 74.2809 104.062 74.2809H64.7938C62.2151 74.2809 60.117 76.3789 60.117 78.9578V118.227C60.117 120.806 62.2151 122.904 64.7938 122.904H94.8368C95.2895 124.85 96.0038 126.697 96.934 128.409H46.3586ZM94.2916 118.998H64.7938C64.376 118.998 64.0233 118.645 64.0233 118.227V78.9578C64.0233 78.54 64.3762 78.1871 64.7938 78.1871H75.1532V93.0035C75.1532 93.7115 75.5364 94.3641 76.1545 94.709C76.7723 95.0539 77.5289 95.0375 78.1317 94.6656L84.4305 90.7803L90.7295 94.6656C91.0434 94.8592 91.3991 94.9564 91.7549 94.9564C92.0827 94.9564 92.4104 94.874 92.7067 94.7088C93.325 94.3637 93.7081 93.7113 93.7081 93.0033V78.1869H104.062C104.48 78.1869 104.832 78.54 104.832 78.9576V99.0506C98.4979 102.941 94.2641 109.933 94.2641 117.895C94.2641 118.265 94.2737 118.632 94.2916 118.998ZM79.0594 89.5039V78.1871H89.8018V89.5041L85.4559 86.8234C84.8272 86.4355 84.0338 86.4355 83.4051 86.8234L79.0594 89.5039ZM116.369 136.094C106.334 136.094 98.1704 127.93 98.1704 117.895C98.1704 107.863 106.334 99.7012 116.369 99.7012C126.4 99.7012 134.562 107.863 134.562 117.895C134.562 127.93 126.4 136.094 116.369 136.094Z" fill="#25B43C"/>
<path d="M86.1415 109.841H71.3709C70.2924 109.841 69.4178 110.715 69.4178 111.794C69.4178 112.872 70.2924 113.747 71.3709 113.747H86.1415C87.22 113.747 88.0946 112.872 88.0946 111.794C88.0946 110.715 87.2202 109.841 86.1415 109.841Z" fill="#25B43C"/>
<path d="M86.1414 102.151H80.7435C79.665 102.151 78.7904 103.025 78.7904 104.104C78.7904 105.182 79.665 106.057 80.7435 106.057H86.1414C87.2199 106.057 88.0945 105.182 88.0945 104.104C88.0945 103.025 87.2201 102.151 86.1414 102.151Z" fill="#25B43C"/>
<path d="M71.3709 106.057H72.9323C74.0108 106.057 74.8854 105.182 74.8854 104.104C74.8854 103.025 74.0108 102.151 72.9323 102.151H71.3709C70.2924 102.151 69.4178 103.025 69.4178 104.104C69.4178 105.182 70.2924 106.057 71.3709 106.057Z" fill="#25B43C"/>
<path d="M84.4307 68.7751H84.4362C85.5147 68.7751 86.3866 67.9005 86.3866 66.822C86.3866 65.7435 85.5093 64.8689 84.4305 64.8689C83.3518 64.8689 82.4774 65.7435 82.4774 66.822C82.4774 67.9005 83.3522 68.7751 84.4307 68.7751Z" fill="#25B43C"/>
</g>
<defs>
<clipPath id="clip0">
<rect width="100" height="100" fill="white" transform="translate(40 40)"/>
</clipPath>
</defs>
</svg>
