<svg width="178" height="178" viewBox="0 0 178 178" fill="none" xmlns="http://www.w3.org/2000/svg">
<circle opacity="0.15" cx="89" cy="89" r="89" fill="#25B43C"/>
<circle cx="89" cy="89" r="88.5" stroke="#25B43C"/>
<path d="M123.375 95.25C122.555 95.2499 121.743 95.414 120.988 95.7328C120.491 95.0093 119.802 94.4395 118.998 94.0883C118.194 93.7371 117.308 93.6185 116.44 93.7462C115.572 93.8738 114.757 94.2425 114.088 94.8102C113.419 95.378 112.923 96.1221 112.656 96.9578C111.151 97.2883 109.821 98.1633 108.921 99.4148C108.022 100.666 107.616 102.206 107.783 103.738C107.95 105.271 108.676 106.687 109.824 107.716C110.972 108.745 112.459 109.313 114 109.313C114.276 109.313 114.552 109.294 114.825 109.256C115.471 110.405 116.464 111.319 117.662 111.868C118.86 112.417 120.202 112.573 121.493 112.313C122.785 112.052 123.962 111.39 124.853 110.42C125.745 109.449 126.307 108.222 126.458 106.913C127.656 106.233 128.595 105.175 129.129 103.906C129.663 102.636 129.762 101.225 129.41 99.8935C129.058 98.5618 128.275 97.384 127.183 96.544C126.092 95.704 124.753 95.249 123.375 95.25ZM124.395 104.434C124.077 104.545 123.803 104.756 123.614 105.036C123.425 105.316 123.332 105.649 123.349 105.986C123.35 106.054 123.359 106.122 123.375 106.188C123.376 106.944 123.102 107.675 122.604 108.244C122.106 108.813 121.418 109.181 120.668 109.28C119.919 109.38 119.159 109.203 118.53 108.783C117.901 108.363 117.446 107.729 117.25 106.998C117.192 106.786 117.09 106.587 116.95 106.417C116.81 106.246 116.636 106.107 116.438 106.009C116.241 105.911 116.025 105.855 115.804 105.846C115.584 105.838 115.364 105.876 115.159 105.958C114.732 106.132 114.27 106.208 113.809 106.183C113.348 106.157 112.898 106.029 112.493 105.809C112.087 105.588 111.735 105.281 111.462 104.908C111.189 104.535 111.002 104.107 110.915 103.653C110.828 103.2 110.842 102.733 110.957 102.285C111.072 101.838 111.284 101.422 111.579 101.066C111.874 100.711 112.244 100.425 112.663 100.23C113.082 100.035 113.538 99.9351 114 99.9375C114.415 99.9375 114.812 99.7729 115.105 99.4799C115.398 99.1869 115.563 98.7894 115.563 98.375C115.563 97.9606 115.727 97.5632 116.02 97.2702C116.313 96.9772 116.711 96.8125 117.125 96.8125C117.511 96.8133 117.882 96.9579 118.166 97.218C118.451 97.4781 118.628 97.835 118.663 98.2188C118.692 98.507 118.802 98.7812 118.978 99.0108C119.155 99.2405 119.392 99.4165 119.663 99.5193C119.933 99.6221 120.228 99.6475 120.512 99.5928C120.796 99.5381 121.06 99.4053 121.274 99.2094C121.614 98.8947 122.02 98.66 122.462 98.5222C122.904 98.3844 123.372 98.347 123.83 98.4129C124.289 98.4788 124.727 98.6462 125.112 98.9029C125.498 99.1596 125.822 99.4992 126.059 99.8969C126.297 100.295 126.443 100.74 126.486 101.201C126.53 101.663 126.47 102.128 126.311 102.563C126.152 102.998 125.897 103.392 125.567 103.716C125.236 104.041 124.837 104.287 124.399 104.438L124.395 104.434Z" fill="#25B43C"/>
<path d="M104.625 118.688C103.619 118.687 102.64 119.011 101.832 119.61C101.025 120.209 100.431 121.052 100.139 122.014C99.1811 122.304 98.3413 122.894 97.7425 123.695C97.1436 124.497 96.8172 125.47 96.8109 126.471C96.8046 127.471 97.1188 128.448 97.7076 129.257C98.2963 130.067 99.1286 130.666 100.083 130.969C100.306 131.988 100.781 132.935 101.464 133.724C102.148 134.512 103.017 135.117 103.995 135.484C104.972 135.85 106.025 135.965 107.058 135.82C108.091 135.675 109.072 135.273 109.91 134.652C110.748 134.03 111.418 133.209 111.857 132.262C112.296 131.316 112.492 130.275 112.425 129.233C112.359 128.192 112.033 127.184 111.477 126.301C110.921 125.418 110.152 124.688 109.242 124.178C109.289 123.913 109.313 123.644 109.312 123.375C109.312 122.132 108.819 120.94 107.939 120.06C107.06 119.181 105.868 118.688 104.625 118.688ZM109.312 129.625C109.312 130.454 108.983 131.249 108.397 131.835C107.811 132.421 107.016 132.75 106.187 132.75C105.359 132.75 104.564 132.421 103.978 131.835C103.392 131.249 103.062 130.454 103.062 129.625C103.062 129.211 102.898 128.813 102.605 128.52C102.312 128.227 101.914 128.062 101.5 128.062C101.085 128.062 100.688 127.898 100.395 127.605C100.102 127.312 99.9374 126.914 99.9374 126.5C99.9374 126.086 100.102 125.688 100.395 125.395C100.688 125.102 101.085 124.937 101.5 124.937C101.914 124.937 102.312 124.773 102.605 124.48C102.898 124.187 103.062 123.789 103.062 123.375C103.062 122.961 103.227 122.563 103.52 122.27C103.813 121.977 104.21 121.812 104.625 121.812C105.039 121.812 105.437 121.977 105.73 122.27C106.023 122.563 106.187 122.961 106.187 123.375C106.187 123.676 106.099 123.971 105.933 124.222C105.797 124.433 105.713 124.673 105.69 124.923C105.666 125.173 105.703 125.424 105.797 125.657C105.891 125.889 106.04 126.096 106.231 126.258C106.422 126.421 106.649 126.536 106.894 126.592C107.582 126.747 108.196 127.132 108.636 127.684C109.075 128.235 109.314 128.92 109.312 129.625Z" fill="#25B43C"/>
<path d="M99.9375 96.8125C99.0104 96.8125 98.1041 97.0874 97.3333 97.6025C96.5624 98.1176 95.9616 98.8496 95.6068 99.7062C95.252 100.563 95.1592 101.505 95.3401 102.414C95.5209 103.324 95.9674 104.159 96.6229 104.815C97.2785 105.47 98.1137 105.917 99.023 106.097C99.9323 106.278 100.875 106.185 101.731 105.831C102.588 105.476 103.32 104.875 103.835 104.104C104.35 103.333 104.625 102.427 104.625 101.5C104.625 100.257 104.131 99.0645 103.252 98.1854C102.373 97.3064 101.181 96.8125 99.9375 96.8125ZM99.9375 103.063C99.6285 103.063 99.3264 102.971 99.0694 102.799C98.8125 102.627 98.6122 102.383 98.4939 102.098C98.3757 101.812 98.3447 101.498 98.405 101.195C98.4653 100.892 98.6141 100.614 98.8326 100.395C99.0512 100.177 99.3296 100.028 99.6327 99.9675C99.9358 99.9072 100.25 99.9382 100.535 100.056C100.821 100.175 101.065 100.375 101.237 100.632C101.408 100.889 101.5 101.191 101.5 101.5C101.5 101.914 101.335 102.312 101.042 102.605C100.749 102.898 100.352 103.063 99.9375 103.063Z" fill="#25B43C"/>
<path d="M123.375 120.25C123.375 119.323 123.1 118.417 122.585 117.646C122.07 116.875 121.338 116.274 120.481 115.919C119.625 115.565 118.682 115.472 117.773 115.653C116.864 115.833 116.029 116.28 115.373 116.935C114.717 117.591 114.271 118.426 114.09 119.336C113.909 120.245 114.002 121.187 114.357 122.044C114.712 122.9 115.312 123.632 116.083 124.148C116.854 124.663 117.76 124.938 118.688 124.938C119.931 124.938 121.123 124.444 122.002 123.565C122.881 122.685 123.375 121.493 123.375 120.25ZM117.125 120.25C117.125 119.941 117.217 119.639 117.388 119.382C117.56 119.125 117.804 118.925 118.09 118.806C118.375 118.688 118.689 118.657 118.992 118.718C119.295 118.778 119.574 118.927 119.792 119.145C120.011 119.364 120.16 119.642 120.22 119.945C120.28 120.248 120.249 120.562 120.131 120.848C120.013 121.133 119.813 121.377 119.556 121.549C119.299 121.721 118.997 121.813 118.688 121.813C118.273 121.813 117.876 121.648 117.583 121.355C117.29 121.062 117.125 120.664 117.125 120.25Z" fill="#25B43C"/>
<path d="M96.4344 110.922L97.1907 113.953C100.522 113.199 103.769 112.115 106.886 110.719L105.491 107.906C102.576 109.2 99.5429 110.21 96.4344 110.922Z" fill="#25B43C"/>
<path d="M105.119 117.044C107.857 116.151 110.535 115.083 113.136 113.844L111.739 111.047C109.27 112.22 106.729 113.236 104.131 114.089L105.119 117.044Z" fill="#25B43C"/>
<path d="M93.6875 117.125H96.8125V120.25H93.6875V117.125Z" fill="#25B43C"/>
<path d="M115.562 128.062H118.688V131.188H115.562V128.062Z" fill="#25B43C"/>
<path d="M128.062 114H131.188V117.125H128.062V114Z" fill="#25B43C"/>
<path d="M53.0625 85.875H56.1875C56.1875 84.6318 56.6814 83.4395 57.5604 82.5604C58.4395 81.6814 59.6318 81.1875 60.875 81.1875V78.0625C59.6318 78.0625 58.4395 77.5686 57.5604 76.6896C56.6814 75.8105 56.1875 74.6182 56.1875 73.375H53.0625C53.0625 74.6182 52.5686 75.8105 51.6896 76.6896C50.8105 77.5686 49.6182 78.0625 48.375 78.0625V81.1875C49.6182 81.1875 50.8105 81.6814 51.6896 82.5604C52.5686 83.4395 53.0625 84.6318 53.0625 85.875ZM54.625 78.0141C55.0802 78.627 55.623 79.1698 56.2359 79.625C55.623 80.0802 55.0802 80.623 54.625 81.2359C54.1698 80.623 53.627 80.0802 53.0141 79.625C53.627 79.1698 54.1698 78.627 54.625 78.0141Z" fill="#25B43C"/>
<path d="M87.4375 54.625H84.3125C84.3125 55.8682 83.8186 57.0605 82.9396 57.9396C82.0605 58.8186 80.8682 59.3125 79.625 59.3125V62.4375C80.8682 62.4375 82.0605 62.9314 82.9396 63.8104C83.8186 64.6895 84.3125 65.8818 84.3125 67.125H87.4375C87.4375 65.8818 87.9314 64.6895 88.8104 63.8104C89.6895 62.9314 90.8818 62.4375 92.125 62.4375V59.3125C90.8818 59.3125 89.6895 58.8186 88.8104 57.9396C87.9314 57.0605 87.4375 55.8682 87.4375 54.625ZM85.875 62.4859C85.4198 61.873 84.877 61.3302 84.2641 60.875C84.877 60.4198 85.4198 59.877 85.875 59.2641C86.3302 59.877 86.873 60.4198 87.4859 60.875C86.873 61.3302 86.3302 61.873 85.875 62.4859Z" fill="#25B43C"/>
<path d="M45.25 134.312C45.25 134.727 45.4146 135.124 45.7076 135.417C46.0007 135.71 46.3981 135.875 46.8125 135.875H84.3125C88.0625 135.875 90.5625 131.172 90.5625 128.062V104.625C90.5625 103.382 90.0686 102.19 89.1896 101.31C88.3105 100.431 87.1182 99.9375 85.875 99.9375H80.5906L77.9062 94.5516C77.7759 94.2906 77.5751 94.0714 77.3265 93.9187C77.078 93.766 76.7917 93.6859 76.5 93.6875H74.9375V46.8125C74.9375 45.5693 74.4436 44.377 73.5646 43.4979C72.6855 42.6189 71.4932 42.125 70.25 42.125C69.0068 42.125 67.8145 42.6189 66.9354 43.4979C66.0564 44.377 65.5625 45.5693 65.5625 46.8125V93.6875H64C63.7096 93.6874 63.425 93.7681 63.178 93.9208C62.931 94.0734 62.7314 94.2918 62.6016 94.5516L59.9094 99.9375H54.625C53.3818 99.9375 52.1895 100.431 51.3104 101.31C50.4314 102.19 49.9375 103.382 49.9375 104.625V128.062C49.9375 129.998 48.3219 132.75 46.8125 132.75C46.3981 132.75 46.0007 132.915 45.7076 133.208C45.4146 133.501 45.25 133.898 45.25 134.312ZM62.4375 128.062C62.4375 129.998 60.8219 132.75 59.3125 132.75H57.8438C58.7431 131.347 59.2502 129.728 59.3125 128.062V118.688H62.4375V128.062ZM68.6875 128.062C68.6875 129.998 67.0719 132.75 65.5625 132.75H64.1C64.9976 131.346 65.5026 129.728 65.5625 128.062V118.688H68.6875V128.062ZM74.9375 128.062C74.9375 129.998 73.3219 132.75 71.8125 132.75H70.3438C71.2431 131.347 71.7502 129.728 71.8125 128.062V118.688H74.9375V128.062ZM81.1875 128.062C81.1875 129.998 79.5719 132.75 78.0625 132.75H76.6C77.4976 131.346 78.0026 129.728 78.0625 128.062V118.688H81.1875V128.062ZM87.4375 128.062C87.4375 129.998 85.8219 132.75 84.3125 132.75H82.8438C83.7431 131.347 84.2502 129.728 84.3125 128.062V118.688H87.4375V128.062ZM68.6875 46.8125C68.6875 46.3981 68.8521 46.0007 69.1451 45.7076C69.4382 45.4146 69.8356 45.25 70.25 45.25C70.6644 45.25 71.0618 45.4146 71.3549 45.7076C71.6479 46.0007 71.8125 46.3981 71.8125 46.8125V73.375H68.6875V46.8125ZM68.6875 76.5H71.8125V82.75H68.6875V76.5ZM68.6875 85.875H71.8125V93.6875H68.6875V85.875ZM64.9656 96.8125H75.5344L77.0969 99.9375H63.4031L64.9656 96.8125ZM53.0625 104.625C53.0625 104.211 53.2271 103.813 53.5201 103.52C53.8132 103.227 54.2106 103.062 54.625 103.062H85.875C86.2894 103.062 86.6868 103.227 86.9799 103.52C87.2729 103.813 87.4375 104.211 87.4375 104.625V115.562H53.0625V104.625ZM53.0625 128.062V118.688H56.1875V128.062C56.1875 129.998 54.5719 132.75 53.0625 132.75H51.6C52.4976 131.346 53.0026 129.728 53.0625 128.062Z" fill="#25B43C"/>
<path d="M59.3125 109.312H62.4375V106.188H57.75C57.3356 106.188 56.9382 106.352 56.6451 106.645C56.3521 106.938 56.1875 107.336 56.1875 107.75V112.438H59.3125V109.312Z" fill="#25B43C"/>
<path d="M65.5625 106.188H68.6875V109.312H65.5625V106.188Z" fill="#25B43C"/>
</svg>
