<svg width="178" height="178" viewBox="0 0 178 178" fill="none" xmlns="http://www.w3.org/2000/svg">
<circle opacity="0.15" cx="89" cy="89" r="89" fill="#25B43C"/>
<circle cx="89" cy="89" r="88.5" stroke="#25B43C"/>
<g clip-path="url(#clip0)">
<path d="M104.914 82.0699C105.533 82.3172 106.241 82.171 106.712 81.6993C112.635 75.8018 121.004 73.0615 129.268 74.3142L136.962 75.4984C137.872 75.638 138.723 75.013 138.863 74.1028C138.964 73.4425 138.662 72.7855 138.094 72.4332L90.5255 42.9082V38.833H87.1902V42.9082L39.6216 72.4332C38.8393 72.9192 38.5986 73.9468 39.0847 74.7298C39.437 75.2968 40.0933 75.5995 40.7536 75.4977L48.4474 74.3142C56.712 73.0621 65.0804 75.8018 71.0041 81.6993C71.4751 82.171 72.1824 82.3165 72.8016 82.0693C76.3464 80.6528 80.0634 79.71 83.8555 79.2663V128.878H78.8531C76.09 128.878 73.8507 131.118 73.8507 133.881C73.8507 136.643 76.09 138.883 78.8531 138.883H98.8633C101.626 138.883 103.866 136.643 103.866 133.881C103.866 131.118 101.626 128.878 98.8633 128.878H93.8602V79.2663C97.6523 79.71 101.369 80.6528 104.914 82.0699ZM102.413 77.7011C93.5836 74.9353 84.1191 74.9353 75.2894 77.7011L88.8579 47.8656L102.413 77.7011ZM106.095 77.7409L92.6512 48.1527L129.401 70.9638C121.025 69.8044 112.55 72.2687 106.102 77.7409H106.095ZM48.3143 70.9638L85.0645 48.1527L71.6141 77.7409C65.1659 72.2687 56.6912 69.8044 48.3143 70.9638ZM100.53 133.881C100.53 134.801 99.7839 135.548 98.8633 135.548H78.8531C77.9318 135.548 77.1854 134.801 77.1854 133.881C77.1854 132.959 77.9318 132.213 78.8531 132.213H98.8633C99.7839 132.213 100.53 132.959 100.53 133.881ZM90.5255 128.878H87.1902V79.0014C88.302 78.9584 89.4137 78.9584 90.5255 79.0014V128.878Z" fill="#25B43C"/>
<path d="M70.5154 118.873H65.513V105.533C65.513 104.612 64.7666 103.866 63.8453 103.866H47.1705C46.2493 103.866 45.5028 104.612 45.5028 105.533V118.873H40.5005C39.5792 118.873 38.8328 119.619 38.8328 120.541V130.546C38.8328 131.467 39.5792 132.213 40.5005 132.213H42.1675V137.216C42.1675 138.137 42.9139 138.883 43.8352 138.883H67.18C68.1013 138.883 68.8477 138.137 68.8477 137.216V132.213H70.5154C71.436 132.213 72.1824 131.467 72.1824 130.546V120.541C72.183 119.62 71.4366 118.873 70.5154 118.873ZM48.8375 128.878V127.211H62.1776V128.878H48.8375ZM48.8375 107.201H62.1776V123.876H48.8375V107.201ZM42.1681 122.208H45.5028V128.878H42.1681V122.208ZM65.513 135.549H45.5028V132.213H65.513V135.549ZM68.8477 128.878H65.513V122.208H68.8477V128.878Z" fill="#25B43C"/>
<path d="M137.215 118.873H132.213V105.533C132.213 104.612 131.467 103.866 130.546 103.866H113.871C112.95 103.866 112.203 104.612 112.203 105.533V118.873H107.201C106.28 118.873 105.534 119.619 105.534 120.541V130.546C105.534 131.467 106.28 132.213 107.201 132.213H108.868V137.216C108.868 138.137 109.615 138.883 110.536 138.883H133.881C134.801 138.883 135.548 138.137 135.548 137.216V132.213H137.215C138.137 132.213 138.883 131.467 138.883 130.546V120.541C138.883 119.62 138.137 118.873 137.215 118.873ZM115.538 128.878V127.211H128.878V128.878H115.538ZM115.538 107.201H128.878V123.876H115.538V107.201ZM108.868 122.208H112.203V128.878H108.868V122.208ZM132.213 135.549H112.203V132.213H132.213V135.549ZM135.548 128.878H132.213V122.208H135.548V128.878Z" fill="#25B43C"/>
</g>
<defs>
<clipPath id="clip0">
<rect width="100" height="100" fill="white" transform="translate(39 39)"/>
</clipPath>
</defs>
</svg>
